<?xml version="1.0" encoding="UTF-8" standalone="no"?>
<!DOCTYPE svg PUBLIC "-//W3C//DTD SVG 1.1//EN" "http://www.w3.org/Graphics/SVG/1.1/DTD/svg11.dtd">
<svg width="100%" height="100%" viewBox="0 0 256 256" version="1.1" xmlns="http://www.w3.org/2000/svg" xmlns:xlink="http://www.w3.org/1999/xlink" xml:space="preserve" xmlns:serif="http://www.serif.com/" style="fill-rule:evenodd;clip-rule:evenodd;stroke-linejoin:round;stroke-miterlimit:2;">
    <g transform="matrix(1.73151,0,0,1.73151,-88.4385,-37.1014)">
        <path d="M193.24,95.38C193.248,88.198 192.121,81.06 189.9,74.23L161,74.23C157.773,74.23 155.115,71.577 155.11,68.35L136.71,68.35C136.629,68.353 136.548,68.355 136.467,68.355C133.236,68.355 130.577,65.696 130.577,62.465C130.577,59.234 133.236,56.575 136.467,56.575C136.548,56.575 136.629,56.577 136.71,56.58L181.14,56.58C168.406,38.146 147.381,27.116 124.977,27.116C93.471,27.116 65.861,48.929 58.57,79.58L115.49,79.58C115.571,79.577 115.652,79.575 115.733,79.575C118.964,79.575 121.623,82.234 121.623,85.465C121.623,88.696 118.964,91.355 115.733,91.355C115.652,91.355 115.571,91.353 115.49,91.35L97.14,91.35C97.14,94.581 94.481,97.24 91.25,97.24L56.76,97.24C56.837,100.14 57.097,103.033 57.54,105.9L57.63,105.9C80.571,109.943 103.826,111.931 127.12,111.84C148.956,111.912 170.76,110.179 192.31,106.66C192.928,102.932 193.239,99.159 193.24,95.38Z" style="fill:rgb(237,34,36);fill-rule:nonzero;"/>
        <path d="M167.57,142.33L82.41,142.33L82.41,148.73C107.229,168.538 142.751,168.538 167.57,148.73L167.57,142.33Z" style="fill:rgb(237,34,36);fill-rule:nonzero;"/>
        <path d="M118,125.83C100.52,125.94 83.82,126.49 68.39,127.41L68.39,133.47L68.69,133.92L118,133.92L118,125.83Z" style="fill:rgb(237,34,36);fill-rule:nonzero;"/>
        <path d="M181.33,133.92L181.64,133.47L181.64,127.41C166.21,126.49 149.5,125.94 132.02,125.83L132.02,133.92L181.33,133.92Z" style="fill:rgb(237,34,36);fill-rule:nonzero;"/>
    </g>
    <g transform="matrix(0.830131,0,0,0.830131,19.9611,19.9611)">
        <g transform="matrix(0.868682,0,0,0.868682,32.4337,15.049)">
            <circle cx="194.745" cy="214.758" r="80.909" style="fill:white;"/>
        </g>
        <g transform="matrix(2.1257,0,0,2.1257,144.47,145.268)">
            <path d="M53.757,32.964L33.951,10.885L26.878,3L19.805,10.885L0,32.964L7.073,40.849L26.878,18.77L46.683,40.849L53.757,32.964Z" style="fill:rgb(237,34,36);fill-rule:nonzero;"/>
            <ellipse cx="26.566" cy="42.375" rx="7.813" ry="7.631" style="fill:rgb(237,34,36);"/>
        </g>
    </g>
</svg>
